<svg xmlns="http://www.w3.org/2000/svg" width="140" height="93" viewBox="0 0 140 93">
    <g fill="#FFF" fill-rule="evenodd">
        <path d="M87.639 63.94c12.184 2.127 21.733 5.445 21.733 5.445.512-1.189 1.345-2.405 1.345-2.405s-8.646-2.86-19.664-5.034a33.605 33.605 0 0 1-3.414 1.994zM55.509 63C31.764 65.659 12.623 74.05 12.623 74.05s16.294-9.265 39.904-13.01c.956.703 1.95 1.357 2.98 1.958z"/>
        <path d="M91.052 61.947c-7.607-1.503-16.295-2.67-24.107-2.351-5.21.213-9.716.688-14.41 1.45a63.545 63.545 0 0 0 2.968 1.95c-9.989-5.833-16.7-16.666-16.7-29.067C38.803 15.354 53.861.295 72.437.295s33.635 15.059 33.635 33.634c0 11.692-5.966 21.99-15.02 28.018zm-2.315 1.41a33.482 33.482 0 0 1-16.3 4.206A33.48 33.48 0 0 1 55.51 63c4.786-.566 8.92-.807 13.976-.8 6.168.01 12.433.743 18.152 1.742.386-.197.753-.393 1.1-.584zM78.413 6.897s.686 13.59-7.072 25.296c-7.918 11.949-22.066 16.59-22.066 16.59s8.494-1.41 19.121 1.166c10.95 2.655 18.226 7.342 18.226 7.342 1.878-3.215 5.333-17.437 4.311-25.467C88.97 16.4 78.413 6.897 78.413 6.897zM3.22 75.243h1.805v12.452c0 1.161-.119 2.02-.357 2.578a2.898 2.898 0 0 1-1.15 1.336c-.53.334-1.169.501-1.915.501-.114 0-.31-.018-.587-.054l-.334-1.68h.46c.518 0 .914-.063 1.188-.19.274-.126.49-.348.65-.667.16-.32.24-.997.24-2.032V75.243zM12.055 75.171h1.273l5.643 12.686h-1.85l-1.68-3.738h-5.364l-1.589 3.738h-1.85l5.417-12.686zm2.645 7.34l-2.031-4.568-1.887 4.569H14.7zm15.692-7.268h1.715v12.614h-1.553l-8.433-9.706v9.706h-1.698V75.243h1.463l8.506 9.788v-9.788zm11.24 6.402h4.234v5.345c-1.553.675-3.094 1.012-4.623 1.012-2.088 0-3.757-.61-5.006-1.829-1.25-1.219-1.874-2.722-1.874-4.51 0-1.884.647-3.452 1.941-4.704 1.294-1.252 2.917-1.878 4.867-1.878.71 0 1.385.076 2.023.23.638.153 1.444.435 2.42.844v1.842c-1.505-.873-2.998-1.309-4.479-1.309-1.379 0-2.54.47-3.485 1.409-.945.939-1.418 2.091-1.418 3.458 0 1.432.473 2.603 1.418 3.512.945.91 2.16 1.364 3.647 1.364.723 0 1.587-.166 2.592-.497l.171-.054v-2.628h-2.428v-1.607zm10.905-6.474h1.274l5.643 12.686h-1.851l-1.68-3.738H50.56l-1.59 3.738h-1.85l5.417-12.686zm2.646 7.34l-2.032-4.568-1.887 4.569h3.919zm5.687 5.328V75.243h4.253c1.715 0 3.073.258 4.072.772a5.824 5.824 0 0 1 2.384 2.271c.59 1 .884 2.089.884 3.269 0 .843-.162 1.65-.487 2.42a6.113 6.113 0 0 1-1.39 2.031 6.103 6.103 0 0 1-2.14 1.364 6.361 6.361 0 0 1-1.31.374c-.397.064-1.156.095-2.275.095H60.87zm4.063-10.989h-2.257v9.382h2.311c.903 0 1.604-.062 2.104-.185.5-.124.917-.28 1.25-.47.335-.19.64-.423.917-.7.891-.902 1.336-2.043 1.336-3.422 0-1.354-.457-2.459-1.372-3.313a4.38 4.38 0 0 0-1.16-.786 4.85 4.85 0 0 0-1.242-.406c-.391-.066-1.02-.1-1.887-.1zm11.783-1.679h1.273l5.644 12.686h-1.851l-1.68-3.738H74.74l-1.59 3.738H71.3l5.417-12.686zm2.646 7.34l-2.032-4.568-1.887 4.569h3.919zm20.856-7.268h1.68v12.614h-1.815v-9.815L96.2 82.918h-.334l-3.919-4.876v9.815h-1.806V75.243h1.698l4.199 5.183 4.18-5.183zm4.423 0h1.806v12.614h-1.806V75.243zm14.635 0h1.715v12.614h-1.553l-8.433-9.706v9.706h-1.698V75.243h1.463l8.506 9.788v-9.788zm4.423 0h7.15v1.607h-5.345v3.847h5.165v1.616h-5.165v3.919h5.517v1.607H123.7V75.243zm12.377 7.323l-1.372-.83c-.861-.524-1.474-1.04-1.838-1.55a2.94 2.94 0 0 1-.546-1.755c0-.994.345-1.8 1.034-2.42.689-.62 1.584-.93 2.686-.93 1.053 0 2.02.295 2.898.885v2.05c-.909-.874-1.887-1.31-2.934-1.31-.59 0-1.075.137-1.454.41-.379.275-.569.625-.569 1.053 0 .379.139.734.416 1.065.277.331.725.677 1.345 1.039l1.382.812c1.54.915 2.311 2.083 2.311 3.504 0 1.01-.339 1.833-1.016 2.465-.677.632-1.557.948-2.64.948-1.247 0-2.382-.383-3.405-1.147v-2.293c.975 1.234 2.104 1.85 3.386 1.85.566 0 1.037-.157 1.413-.474.376-.316.565-.711.565-1.187 0-.77-.554-1.499-1.662-2.185z"/>
    </g>
</svg>
